<?xml version="1.0" standalone="no"?>
<!DOCTYPE svg PUBLIC "-//W3C//DTD SVG 20010904//EN"
 "http://www.w3.org/TR/2001/REC-SVG-20010904/DTD/svg10.dtd">
<svg version="1.0" xmlns="http://www.w3.org/2000/svg"
 width="1608.000000pt" height="1240.000000pt" viewBox="0 0 1608.000000 1240.000000"
 preserveAspectRatio="xMidYMid meet">

<g transform="translate(0.000000,1240.000000) scale(0.100000,-0.100000)"
fill="#000000" stroke="none">
<path d="M0 6200 l0 -6200 253 2 252 3 1 310 c1 171 2 319 3 330 1 11 17 30
36 43 l35 22 0 -355 0 -355 847 2 848 3 0 63 c0 60 2 64 43 104 l42 43 0 -108
0 -107 195 0 c194 0 195 0 200 23 2 12 3 150 2 307 l-3 285 43 45 43 45 0
-352 0 -353 164 0 c148 0 164 2 168 17 2 10 4 199 4 421 l-1 402 43 0 42 0 0
-420 0 -420 635 0 635 0 0 28 c0 15 21 59 45 97 l45 70 0 -97 0 -98 165 0 165
0 0 368 0 367 30 47 c60 95 60 93 60 -367 l0 -415 165 0 165 0 0 414 0 414 45
0 45 0 0 -414 0 -414 165 0 165 0 0 415 0 415 45 -2 45 -1 0 -277 0 -277 -40
-126 c-22 -68 -40 -130 -40 -136 0 -8 172 -11 624 -11 l624 0 5 113 c2 61 14
164 26 227 12 63 30 160 41 215 l18 100 1 -327 1 -328 155 0 155 0 0 400 0
400 40 0 40 0 0 -400 0 -400 250 0 250 0 0 58 c0 31 1 211 1 400 0 204 4 342
10 342 5 0 9 -160 9 -400 l0 -400 915 0 915 0 0 404 0 403 45 1 45 1 0 -404 0
-405 200 0 200 0 0 405 0 406 45 -2 45 -3 0 -403 0 -403 200 0 199 0 3 157 3
158 43 -71 c41 -68 42 -73 42 -157 l0 -87 860 0 860 0 0 410 0 410 28 1 c15 0
35 2 45 4 16 3 17 -22 17 -411 l0 -414 170 0 170 0 0 287 0 287 45 -44 45 -44
0 -243 0 -243 170 0 170 0 0 73 0 72 45 -45 c30 -31 44 -54 45 -72 l0 -28 617
0 c596 0 616 1 600 18 -15 17 -17 60 -17 410 l0 392 43 0 43 0 -1 -410 0 -410
171 0 171 0 -3 335 -2 335 26 -20 c68 -50 62 -18 62 -349 l0 -301 163 2 162 3
0 172 c0 95 2 173 4 173 2 0 19 -11 38 -26 l33 -25 0 -150 0 -149 175 0 175 0
0 6200 0 6200 -8040 0 -8040 0 0 -6200z m7528 4642 c1 -849 -1 -1361 -7 -1357
-5 3 -10 13 -10 23 -2 44 -5 53 -19 47 -12 -4 -12 -2 -4 8 7 8 8 17 4 21 -4 4
-7 13 -7 18 0 6 -7 13 -15 15 -13 4 -13 3 0 -6 8 -6 11 -11 6 -11 -5 0 -3 -7
4 -15 9 -11 9 -15 1 -15 -6 0 -16 10 -21 23 -5 12 -9 488 -9 1117 0 602 0
1175 0 1273 l-1 177 -155 0 -155 0 0 -1234 c0 -679 -3 -1237 -7 -1239 -5 -2
-19 -1 -33 3 -17 4 -21 8 -12 14 6 4 12 13 12 19 0 7 -8 0 -18 -16 -10 -15
-22 -24 -25 -20 -4 3 -7 561 -7 1240 l0 1233 -165 0 -165 0 0 -1234 c0 -751
-4 -1237 -9 -1241 -5 -3 -12 -1 -15 4 -4 5 -1 11 6 13 7 3 5 7 -6 11 -10 4
-15 3 -11 -3 4 -6 -5 -10 -20 -10 -14 0 -24 -4 -20 -9 3 -5 1 -13 -5 -16 -6
-4 -10 -3 -9 2 1 4 1 565 0 1246 l-1 1237 -165 0 -165 0 0 -1238 c0 -1110 -2
-1239 -15 -1239 -9 0 -14 6 -11 14 4 9 1 11 -6 7 -16 -10 -58 -14 -57 -6 1 4
1 559 0 1235 l-1 1227 -165 0 -165 0 -1 -1232 c-1 -678 -1 -1237 0 -1241 1 -5
-3 -5 -9 -2 -6 4 -9 14 -6 22 3 8 1 11 -4 8 -6 -3 -10 -13 -10 -21 0 -8 -5
-14 -11 -14 -5 0 -7 5 -4 10 3 6 1 10 -4 10 -6 0 -11 -4 -11 -10 0 -5 -7 -7
-16 -3 -13 5 -13 7 -2 14 10 7 10 9 1 9 -10 0 -13 252 -13 1225 l0 1225 -165
0 -165 0 0 -1238 0 -1238 -45 0 c-39 0 -45 3 -45 20 0 17 2 18 10 6 6 -9 10
-10 10 -3 0 6 -4 15 -10 18 -7 4 -10 422 -10 1221 l0 1214 -165 0 -165 0 0
-1226 c0 -1157 -1 -1228 -18 -1240 -9 -7 -27 -14 -39 -14 -12 0 -24 -6 -27
-12 -4 -9 -5 -8 -5 2 1 8 1 572 0 1253 l-1 1237 -165 0 -165 0 0 -1229 c0
-928 -3 -1232 -12 -1237 -7 -5 -9 -2 -5 9 4 11 2 14 -9 10 -7 -3 -14 -8 -14
-12 0 -4 -11 -13 -25 -19 -14 -6 -24 -8 -24 -4 1 4 1 564 0 1245 l-1 1237
-165 0 -165 0 -1 -1232 c-1 -678 0 -1240 1 -1247 1 -13 -1 -13 -14 -2 -9 7
-14 17 -11 21 3 5 0 12 -6 16 -8 4 -9 3 -5 -4 5 -8 -1 -12 -14 -12 -14 0 -19
4 -15 13 4 6 -1 3 -9 -7 -15 -18 -16 90 -16 1217 l0 1237 -182 -2 -183 -3 -5
-1240 c-3 -711 -9 -1232 -14 -1222 -6 13 -12 15 -21 7 -10 -8 -15 -8 -20 1 -6
8 -10 7 -16 -2 -5 -8 -9 523 -9 1215 0 677 -4 1234 -8 1238 -5 5 -94 7 -198 6
l-189 -3 -3 -1232 c-2 -1128 -3 -1233 -18 -1233 -14 0 -15 2 -3 18 10 13 8 12
-10 -3 -19 -16 -25 -17 -29 -6 -4 11 -6 11 -13 0 -5 -8 -9 518 -9 1215 0 677
-4 1234 -8 1238 -5 5 -80 7 -168 6 l-159 -3 -3 -1238 c-1 -864 -5 -1236 -13
-1232 -16 11 -59 13 -53 4 3 -5 0 -9 -5 -9 -8 0 -11 379 -11 1231 0 677 -2
1235 -6 1240 -7 12 -381 12 -388 0 -3 -5 -6 -566 -7 -1247 0 -692 -4 -1230 -9
-1219 -5 11 -9 14 -9 7 -1 -10 -5 -10 -20 0 -11 7 -17 16 -15 20 3 5 0 7 -8 6
-11 -3 -13 209 -15 1207 -2 665 -5 1215 -8 1222 -3 10 -51 13 -194 13 -104 0
-192 -4 -195 -9 -3 -5 -6 -563 -6 -1240 0 -748 -4 -1231 -10 -1231 -5 0 -12 5
-15 10 -4 6 -11 7 -17 4 -6 -4 -14 0 -19 7 -7 12 -9 11 -11 -1 -2 -8 -5 541
-8 1220 l-5 1235 -165 0 -165 0 -5 -1235 c-3 -679 -6 -1230 -8 -1224 -1 7 -9
15 -18 18 -8 3 -13 2 -10 -3 3 -5 -1 -14 -9 -21 -12 -10 -15 -9 -15 4 0 10 -4
15 -8 12 -5 -3 -9 0 -9 7 -4 81 -4 308 -4 1286 1 630 -3 1149 -7 1153 -5 5
-80 7 -168 6 l-159 -3 -3 -1242 c-2 -1235 -2 -1241 -22 -1236 -11 3 -20 10
-20 17 0 6 -5 4 -10 -4 -9 -13 -11 -13 -20 0 -6 10 -10 449 -10 1233 1 670 -2
1222 -5 1227 -4 6 -84 10 -191 10 l-184 0 0 -1240 c0 -682 -3 -1240 -7 -1240
-3 0 -16 8 -27 18 -20 16 -20 16 -6 -2 14 -18 13 -19 -2 -13 -9 3 -19 1 -22
-6 -2 -7 -5 561 -5 1261 l-1 1272 3508 -2 3507 -3 3 -1363z m8202 80 l0 -1279
-25 -11 c-51 -23 -47 -122 -49 1383 l-1 1120 -162 3 -163 2 0 -1212 c0 -667
-1 -1220 -2 -1230 -2 -18 -30 -17 -56 4 -12 10 -14 10 -8 1 4 -7 2 -13 -3 -13
-14 0 -14 -28 -12 1323 l2 1127 -175 0 -175 0 1 -1147 c2 -1241 1 -1310 -15
-1320 -5 -3 -7 -2 -4 4 4 6 -1 19 -9 29 -12 14 -14 15 -11 3 3 -9 -1 -16 -9
-16 -8 0 -14 4 -14 9 0 5 -4 6 -10 3 -6 -4 -10 47 -10 147 0 84 0 633 0 1221
l0 1067 -170 0 c-169 0 -170 0 -171 -22 0 -13 0 -554 0 -1202 1 -649 -1 -1188
-5 -1198 -3 -10 -10 -16 -15 -12 -5 3 -6 11 -3 17 4 7 3 8 -2 4 -5 -5 -9 -12
-9 -15 -1 -18 -17 -30 -35 -25 -20 5 -20 14 -20 1229 l0 1224 -170 0 -170 0 0
-52 c0 -29 0 -583 0 -1231 0 -1069 -2 -1177 -16 -1163 -12 12 -20 13 -35 6
-10 -6 -19 -7 -20 -3 0 4 -4 -1 -9 -12 -5 -11 -9 518 -9 1218 l-1 1237 -170 0
-170 0 0 -1226 c0 -814 -3 -1223 -10 -1219 -5 3 -10 1 -10 -6 0 -10 -3 -10
-12 -1 -10 10 -10 15 2 22 11 7 12 10 2 10 -8 0 -16 -9 -19 -19 -3 -12 -13
-19 -24 -18 -19 1 -19 30 -19 1229 l0 1228 -170 0 -170 0 0 -1228 c0 -1221 0
-1228 -20 -1228 -11 0 -20 3 -20 6 0 4 -10 6 -22 6 l-23 -1 -3 1223 -2 1222
-170 0 -170 0 0 -1219 c0 -803 -3 -1222 -10 -1226 -5 -3 -10 2 -10 12 0 14 -2
15 -9 4 -5 -7 -13 -11 -19 -7 -6 3 -13 2 -17 -4 -3 -5 -10 -10 -16 -10 -6 0
-9 437 -9 1168 0 642 0 1193 0 1225 l0 57 -170 0 -170 0 0 -292 c0 -161 0
-710 0 -1220 0 -510 -3 -929 -8 -932 -4 -2 -14 -1 -22 4 -17 11 -42 1 -33 -14
3 -6 0 -5 -8 2 -12 11 -14 201 -14 1230 l0 1217 -187 3 -188 2 0 -497 c0 -274
0 -821 0 -1217 0 -668 -1 -719 -17 -731 -18 -14 -47 -9 -37 6 3 5 2 9 -3 8
-33 -6 -33 -20 -33 1216 l0 1215 -200 0 -200 0 -1 -37 c0 -21 -1 -121 -2 -223
-1 -102 -6 -191 -11 -199 -6 -9 -5 -12 2 -7 15 9 16 -1897 1 -1926 -8 -15 -8
-19 0 -14 16 11 13 -16 -6 -39 -12 -15 -14 -16 -10 -3 4 12 2 15 -7 12 -8 -3
-17 -1 -21 5 -10 18 -23 12 -28 -11 -2 -13 -5 532 -6 1210 l-1 1232 -170 0
-170 0 0 -222 c0 -123 0 -668 0 -1211 0 -655 -3 -986 -10 -982 -6 4 -7 -1 -3
-11 5 -13 2 -16 -9 -12 -9 4 -21 1 -28 -5 -10 -9 -11 -9 -5 3 6 12 5 13 -6 3
-7 -7 -17 -13 -21 -13 -4 0 -8 551 -8 1225 l0 1225 -200 0 -200 0 0 -1200 c0
-793 -3 -1200 -10 -1200 -5 0 -10 -5 -10 -11 0 -5 4 -8 8 -5 4 2 9 -6 10 -20
1 -13 -3 -24 -9 -24 -5 0 -7 5 -3 12 5 7 3 8 -7 2 -8 -5 -26 -9 -41 -10 l-28
-1 0 1228 0 1229 -200 0 -200 0 0 -22 c0 -13 0 -562 0 -1220 0 -1189 0 -1198
-20 -1198 -11 0 -20 -6 -20 -12 0 -10 -2 -10 -9 0 -6 11 -11 10 -25 -3 -15
-15 -16 72 -16 1219 l0 1236 -170 0 -170 0 -1 -1247 c-1 -687 -5 -1237 -9
-1223 -4 14 -9 21 -9 15 -1 -5 -6 -3 -11 5 -7 11 -10 11 -10 2 0 -7 -5 -10
-10 -7 -6 4 -8 10 -5 15 3 5 1 12 -5 15 -6 4 -9 1 -8 -6 2 -6 -3 -14 -9 -16
-10 -4 -13 245 -13 1221 l0 1226 -170 0 -170 0 -1 -1217 c-1 -670 -1 -1225 0
-1233 1 -11 -3 -10 -14 4 -15 20 -15 20 -16 0 0 -11 -3 -14 -6 -6 -4 10 -8 10
-19 2 -15 -13 -34 -5 -33 13 0 9 2 9 6 0 8 -21 18 -15 18 11 0 18 -3 22 -12
14 -10 -8 -13 233 -13 1201 l0 1211 -190 0 -190 0 0 -1268 c0 -1145 -2 -1269
-16 -1269 -11 0 -14 7 -9 24 3 13 2 23 -3 23 -15 0 -12 -51 4 -57 15 -5 15 -7
0 -15 -9 -5 -14 -13 -11 -18 3 -4 -3 -7 -12 -5 -10 2 -21 4 -25 4 -5 1 -8 595
-8 1321 l0 1320 3585 0 3585 0 0 -1278z m-7680 -67 c-1 -107 -5 -195 -10 -195
-4 0 -8 88 -9 195 -1 134 1 195 9 195 7 0 10 -61 10 -195z m3750 -1159 c0 -3
-4 -8 -10 -11 -5 -3 -10 -1 -10 4 0 6 5 11 10 11 6 0 10 -2 10 -4z m-850 -16
c0 -5 -2 -10 -4 -10 -3 0 -8 5 -11 10 -3 6 -1 10 4 10 6 0 11 -4 11 -10z
m4777 -92 c-3 -8 -6 -5 -6 6 -1 11 2 17 5 13 3 -3 4 -12 1 -19z m-7683 -48
c-6 -6 -10 -3 -10 10 0 13 4 16 10 10 7 -7 7 -13 0 -20z m-664 -917 l-1 -928
-220 -280 c-121 -154 -246 -314 -278 -355 -33 -41 -187 -238 -342 -437 -156
-199 -358 -457 -449 -573 -91 -117 -183 -235 -206 -264 -22 -28 -162 -206
-309 -396 -148 -190 -292 -374 -320 -410 -28 -36 -108 -137 -176 -225 -330
-423 -556 -712 -676 -866 -73 -93 -133 -171 -133 -174 0 -3 716 -5 1590 -5
l1590 0 0 -770 0 -770 -3467 0 -3468 0 5 927 5 928 139 180 c77 99 176 227
220 285 44 58 186 242 315 410 129 168 338 440 465 605 126 165 306 399 399
520 93 121 222 290 288 375 65 85 174 227 241 315 145 188 181 235 641 835
l349 455 -1576 3 -1576 2 0 770 0 770 3475 0 3475 0 0 -927z m1193 897 c-7
-28 -13 -25 -13 6 0 14 4 23 9 20 5 -3 7 -15 4 -26z m7077 -740 l0 -770 -1576
-2 -1576 -3 54 -70 c30 -38 188 -245 353 -460 164 -214 366 -478 449 -585 82
-107 186 -242 230 -301 158 -205 233 -304 391 -509 88 -114 207 -270 265 -345
58 -75 126 -165 153 -199 26 -33 284 -369 573 -746 289 -377 541 -705 560
-729 l34 -44 0 -924 0 -923 -3465 0 -3465 0 0 770 0 770 1590 0 c875 0 1590 2
1590 5 0 3 -64 88 -143 188 -79 100 -211 270 -295 377 -84 107 -171 220 -195
250 -149 189 -341 435 -387 495 -30 39 -151 194 -269 345 -329 421 -529 677
-597 765 -34 44 -114 145 -176 225 -270 345 -523 668 -776 992 l-272 348 0
925 0 925 3475 0 3475 0 0 -770z m-7600 714 c0 -8 -4 -14 -8 -14 -4 0 -8 9 -8
19 0 11 4 17 8 15 4 -3 8 -12 8 -20z m532 -16 c3 -7 -1 -33 -8 -58 l-12 -45
-1 58 c-1 52 10 76 21 45z m-1052 -43 c0 -19 -2 -35 -4 -35 -2 0 -6 16 -8 35
-2 19 0 35 4 35 4 0 8 -16 8 -35z m518 -75 c-1 -43 -15 -47 -15 -5 0 19 4 35
8 35 4 0 7 -14 7 -30z m-521 -32 c-3 -8 -6 -5 -6 6 -1 11 2 17 5 13 3 -3 4
-12 1 -19z m1040 -10 c-3 -7 -5 -2 -5 12 0 14 2 19 5 13 2 -7 2 -19 0 -25z
m-520 -38 c1 -16 -2 -32 -7 -35 -11 -7 -14 48 -3 58 3 4 7 7 7 7 1 0 2 -13 3
-30z m-520 -52 c-3 -8 -6 -5 -6 6 -1 11 2 17 5 13 3 -3 4 -12 1 -19z m518
-133 c-1 -63 -5 -118 -8 -122 -4 -3 -7 48 -6 115 0 67 4 122 8 122 5 0 7 -52
6 -115z m531 36 c-5 -66 -16 -60 -13 7 1 33 5 55 9 48 4 -7 6 -32 4 -55z
m-1046 19 c0 -11 -4 -20 -9 -20 -7 0 -8 17 -2 38 4 10 11 -2 11 -18z m0 -82
c0 -28 -3 -48 -7 -45 -3 4 -6 20 -5 37 0 16 -4 30 -9 30 -8 0 10 28 19 30 1 0
2 -23 2 -52z m1050 -2 c0 -3 -4 -8 -10 -11 -5 -3 -10 -1 -10 4 0 6 5 11 10 11
6 0 10 -2 10 -4z m-1053 -78 c-3 -8 -6 -5 -6 6 -1 11 2 17 5 13 3 -3 4 -12 1
-19z m1053 8 c0 -3 -4 -8 -10 -11 -5 -3 -10 -1 -10 4 0 6 5 11 10 11 6 0 10
-2 10 -4z m-1053 -48 c-3 -8 -6 -5 -6 6 -1 11 2 17 5 13 3 -3 4 -12 1 -19z
m521 -27 c1 -17 -2 -31 -8 -31 -5 0 -10 16 -10 36 0 42 15 38 18 -5z m-521
-13 c-3 -8 -6 -5 -6 6 -1 11 2 17 5 13 3 -3 4 -12 1 -19z m2 -75 c-1 -44 -3
-51 -8 -28 -6 29 -3 85 5 85 2 0 3 -26 3 -57z m516 27 c3 -5 1 -10 -4 -10 -6
0 -11 5 -11 10 0 6 2 10 4 10 3 0 8 -4 11 -10z m4 -63 c0 -12 -4 -31 -9 -42
-6 -15 -9 -8 -9 28 -1 30 3 46 9 42 6 -3 10 -16 9 -28z m523 -19 c-7 -7 -12
-8 -12 -2 0 14 12 26 19 19 2 -3 -1 -11 -7 -17z m2 -61 c2 -20 0 -37 -5 -37
-5 0 -9 19 -9 42 0 49 7 47 14 -5z m-524 9 c0 -3 -4 -8 -10 -11 -5 -3 -10 -1
-10 4 0 6 5 11 10 11 6 0 10 -2 10 -4z m-520 -16 c0 -5 -5 -10 -11 -10 -5 0
-7 5 -4 10 3 6 8 10 11 10 2 0 4 -4 4 -10z m516 -60 c-2 -68 -13 -73 -15 -5 0
30 3 55 8 55 4 0 7 -22 7 -50z m-519 -17 c-3 -10 -5 -2 -5 17 0 19 2 27 5 18
2 -10 2 -26 0 -35z m1048 -12 c3 -5 2 -12 -3 -15 -5 -3 -9 1 -9 9 0 17 3 19
12 6z m-1045 -37 c0 -14 -4 -23 -9 -19 -11 6 -10 45 1 45 4 0 8 -12 8 -26z
m517 -19 c0 -8 -4 -15 -9 -15 -4 0 -8 7 -8 15 0 8 4 15 8 15 5 0 9 -7 9 -15z
m-517 -30 c0 -8 -4 -15 -10 -15 -5 0 -7 7 -4 15 4 8 8 15 10 15 2 0 4 -7 4
-15z m517 -90 c0 -52 -4 -95 -9 -95 -4 0 -7 43 -6 95 0 52 4 95 8 95 4 0 7
-43 7 -95z m-517 -12 c0 -42 -3 -74 -6 -70 -9 9 -8 147 1 147 3 0 5 -34 5 -77z
m1045 67 c3 -5 1 -10 -4 -10 -6 0 -11 5 -11 10 0 6 2 10 4 10 3 0 8 -4 11 -10z
m-1048 -207 c-3 -10 -5 -2 -5 17 0 19 2 27 5 18 2 -10 2 -26 0 -35z m518 -93
c0 -66 -3 -122 -7 -125 -3 -3 -6 56 -7 132 0 76 3 132 7 125 5 -7 8 -66 7
-132z m530 106 c-1 -49 -11 -53 -13 -6 -2 22 1 40 5 40 4 0 8 -16 8 -34z
m-1045 -113 c0 -42 -2 -74 -6 -71 -8 9 -8 148 1 148 3 0 5 -34 5 -77z m1050
-77 c0 -8 -4 -18 -10 -21 -5 -3 -10 3 -10 14 0 12 5 21 10 21 6 0 10 -6 10
-14z m-1053 -53 c-3 -10 -5 -2 -5 17 0 19 2 27 5 18 2 -10 2 -26 0 -35z m519
-68 c-3 -89 -16 -95 -16 -7 0 40 4 72 9 72 6 0 9 -29 7 -65z m521 43 c-3 -8
-6 -5 -6 6 -1 11 2 17 5 13 3 -3 4 -12 1 -19z m-1037 -31 c0 -24 -5 -34 -15
-34 -11 0 -12 4 -5 11 5 5 10 20 10 33 0 13 2 23 5 23 3 0 5 -15 5 -33z m1037
-29 c-3 -8 -6 -5 -6 6 -1 11 2 17 5 13 3 -3 4 -12 1 -19z m7163 -47 c0 -45 -2
-48 -25 -48 -15 0 -25 5 -25 14 0 8 5 11 10 8 6 -3 10 -1 10 4 0 6 -4 11 -9
11 -5 0 -7 9 -4 20 6 22 19 26 26 8 2 -7 2 -3 0 10 -2 12 1 22 7 22 5 0 10
-22 10 -49z m-8200 13 c0 -8 -5 -12 -10 -9 -6 4 -8 11 -5 16 9 14 15 11 15 -7z
m1049 -56 c2 -24 3 -61 3 -83 0 -22 5 -46 12 -54 8 -12 8 -13 -1 -7 -7 4 -13
3 -13 -3 0 -5 4 -12 9 -15 5 -3 7 -16 3 -28 -3 -13 -1 -19 5 -15 7 5 9 0 6
-13 -3 -11 -1 -20 5 -20 6 0 9 -14 7 -31 -3 -23 -1 -30 10 -25 12 4 14 -44 15
-315 0 -211 -3 -319 -10 -319 -6 0 -10 -36 -9 -92 0 -51 0 -155 0 -230 l-1
-138 -52 1 c-29 1 -43 4 -31 6 l22 4 1 622 c1 342 1 661 2 710 1 90 12 119 17
45z m-1049 0 c0 -23 -3 -29 -9 -19 -8 12 -4 51 5 51 2 0 4 -15 4 -32z m-6133
16 c-3 -3 0 -12 6 -19 12 -13 37 -9 48 7 3 5 6 -15 7 -44 0 -29 -1 -48 -4 -43
-2 6 -22 9 -43 7 -37 -4 -39 -3 -34 20 3 12 10 28 15 35 5 7 4 13 -3 15 -12 4
-5 28 8 28 4 0 4 -3 0 -6z m6653 -540 c0 -328 -4 -534 -9 -534 -6 0 -10 209
-10 541 -1 353 3 538 9 534 6 -4 10 -199 10 -541z m-520 465 c0 -11 -4 -18
-10 -14 -5 3 -7 12 -3 20 7 21 13 19 13 -6z m-10 -1319 c-5 -3 -22 -5 -37 -4
l-28 1 -1 584 c0 321 1 576 4 567 2 -10 8 -18 14 -18 5 0 7 7 4 16 -5 14 -4
15 8 5 12 -10 13 -9 9 8 -3 12 0 27 6 34 6 8 8 17 5 20 -4 3 -3 14 1 24 5 10
9 21 10 26 2 4 4 13 6 20 2 6 5 -278 6 -632 2 -408 0 -647 -7 -651z m6877
1213 c-2 -16 -4 -3 -4 27 0 30 2 43 4 28 2 -16 2 -40 0 -55z m-13360 20 c-3
-10 -5 -2 -5 17 0 19 2 27 5 18 2 -10 2 -26 0 -35z m-70 5 c-3 -7 -5 -2 -5 12
0 14 2 19 5 13 2 -7 2 -19 0 -25z m13000 -5 c-3 -10 -5 -4 -5 12 0 17 2 24 5
18 2 -7 2 -21 0 -30z m70 15 c-3 -8 -6 -5 -6 6 -1 11 2 17 5 13 3 -3 4 -12 1
-19z m1220 -25 c-3 -10 -5 -4 -5 12 0 17 2 24 5 18 2 -7 2 -21 0 -30z m470 5
c-3 -8 -6 -5 -6 6 -1 11 2 17 5 13 3 -3 4 -12 1 -19z m-2112 3 c3 -5 2 -12 -3
-15 -5 -3 -9 1 -9 9 0 17 3 19 12 6z m-12648 -48 c-3 -10 -5 -4 -5 12 0 17 2
24 5 18 2 -7 2 -21 0 -30z m13000 5 c-3 -8 -6 -5 -6 6 -1 11 2 17 5 13 3 -3 4
-12 1 -19z m-12160 -50 c-2 -13 -4 -3 -4 22 0 25 2 35 4 23 2 -13 2 -33 0 -45z
m11383 -63 l0 -125 -45 0 -45 0 0 125 0 125 45 0 45 0 0 -125z m347 78 c-3
-10 -5 -2 -5 17 0 19 2 27 5 18 2 -10 2 -26 0 -35z m1720 -15 c-2 -13 -4 -3
-4 22 0 25 2 35 4 23 2 -13 2 -33 0 -45z m70 40 c-3 -8 -6 -5 -6 6 -1 11 2 17
5 13 3 -3 4 -12 1 -19z m-12967 -133 l0 -125 -45 0 -45 0 0 118 c0 65 3 122 7
125 3 4 24 7 45 7 l38 0 0 -125z m480 0 l0 -125 -45 0 -45 0 0 118 c0 65 3
122 7 125 3 4 24 7 45 7 l38 0 0 -125z m12827 103 c-3 -8 -6 -5 -6 6 -1 11 2
17 5 13 3 -3 4 -12 1 -19z m-12470 6 c-3 -3 -12 -4 -19 -1 -8 3 -5 6 6 6 11 1
17 -2 13 -5z m10811 -242 l37 3 0 -270 0 -270 -42 -3 -43 -3 2 398 c1 219 4
340 5 270 l4 -128 37 3z m-12621 176 c-3 -8 -6 -5 -6 6 -1 11 2 17 5 13 3 -3
4 -12 1 -19z m420 -10 c-3 -7 -5 -2 -5 12 0 14 2 19 5 13 2 -7 2 -19 0 -25z
m-347 1 c0 -11 -4 -18 -10 -14 -5 3 -7 12 -3 20 7 21 13 19 13 -6z m12084 6
c3 -8 1 -15 -4 -15 -6 0 -10 7 -10 15 0 8 2 15 4 15 2 0 6 -7 10 -15z m1713
-27 c-3 -7 -5 -2 -5 12 0 14 2 19 5 13 2 -7 2 -19 0 -25z m70 0 c-3 -8 -6 -5
-6 6 -1 11 2 17 5 13 3 -3 4 -12 1 -19z m-13450 -10 c-3 -8 -6 -5 -6 6 -1 11
2 17 5 13 3 -3 4 -12 1 -19z m12167 6 c3 -8 2 -12 -4 -9 -6 3 -10 10 -10 16 0
14 7 11 14 -7z m-12587 -81 c-3 -10 -5 -2 -5 17 0 19 2 27 5 18 2 -10 2 -26 0
-35z m13800 -5 c-3 -7 -5 -2 -5 12 0 14 2 19 5 13 2 -7 2 -19 0 -25z m-13450
0 c-3 -8 -6 -5 -6 6 -1 11 2 17 5 13 3 -3 4 -12 1 -19z m13520 -15 c-3 -10 -5
-4 -5 12 0 17 2 24 5 18 2 -7 2 -21 0 -30z m-1710 -5 c-3 -8 -6 -5 -6 6 -1 11
2 17 5 13 3 -3 4 -12 1 -19z m-12160 -30 c-3 -7 -5 -2 -5 12 0 14 2 19 5 13 2
-7 2 -19 0 -25z m13812 -305 c1 -200 -2 -303 -9 -303 -7 0 -10 109 -9 323 0
182 5 313 9 302 5 -11 9 -156 9 -322z m-1732 74 c-1 -45 -3 -5 -3 88 0 94 2
130 3 82 2 -48 2 -125 0 -170z m942 -77 c1 -165 0 -300 -3 -300 -3 0 -10 15
-16 33 l-10 32 4 -31 c5 -28 3 -31 -25 -31 -29 0 -31 2 -27 33 2 18 0 30 -4
28 -4 -3 -8 117 -8 265 l0 271 43 0 44 0 2 -300z m420 0 c-1 -244 -4 -298 -14
-290 -9 7 -15 7 -19 1 -4 -5 -15 -9 -25 -8 -15 1 -20 11 -24 47 -4 38 -3 347
2 503 l1 47 40 0 41 0 -2 -300z m-1709 219 c0 -38 -4 -69 -9 -69 -5 0 -7 8 -4
19 3 14 -2 20 -23 25 -22 6 -25 9 -13 17 7 5 10 9 5 9 -5 0 -3 6 3 14 9 11 9
16 0 22 -8 4 -9 3 -5 -4 4 -7 1 -12 -8 -12 -9 0 -16 7 -16 15 0 8 -6 15 -12
16 -18 1 28 14 58 15 23 2 24 0 24 -67z m430 51 c0 -11 -4 -20 -8 -20 -4 0 -8
9 -8 20 0 11 4 20 8 20 4 0 8 -9 8 -20z m-13041 -298 l-1 -298 -34 0 -34 0 0
298 0 298 35 0 36 0 -2 -298z m461 28 l0 -270 -45 0 -45 0 0 163 c0 90 3 212
7 270 l6 107 39 0 38 0 0 -270z m409 43 c-1 -126 -6 -233 -11 -240 -6 -7 -7
-17 -3 -23 3 -5 8 -19 10 -30 3 -17 -2 -20 -31 -20 l-34 0 0 270 0 270 36 0
35 0 -2 -227z m911 92 l0 -125 -45 0 -45 0 0 118 c0 65 3 122 7 125 3 4 24 7
45 7 l38 0 0 -125z m480 35 c0 -65 -3 -90 -12 -91 -10 0 -10 -2 0 -6 21 -8 13
-21 -10 -17 -13 2 -17 1 -10 -2 9 -4 5 -10 -13 -20 -15 -8 -31 -11 -36 -8 -10
6 -12 217 -2 227 3 4 24 7 45 7 l38 0 0 -90z m10780 50 c0 -5 -5 -10 -11 -10
-5 0 -7 5 -4 10 3 6 8 10 11 10 2 0 4 -4 4 -10z m-11742 -65 c-3 -3 -9 2 -12
12 -6 14 -5 15 5 6 7 -7 10 -15 7 -18z m11742 -5 c0 -16 -4 -30 -10 -30 -5 0
-10 14 -10 30 0 17 5 30 10 30 6 0 10 -13 10 -30z m-11744 -40 c-1 -16 -5 -32
-8 -35 -2 -3 -4 7 -2 22 3 41 4 43 8 43 3 0 3 -13 2 -30z m11744 -10 c0 -5 -4
-10 -10 -10 -5 0 -10 5 -10 10 0 6 5 10 10 10 6 0 10 -4 10 -10z m-6480 -370
l0 -350 -35 0 -35 0 0 -70 c0 -40 -4 -70 -10 -70 -6 0 -10 132 -10 375 l0 375
25 0 c26 0 34 14 13 24 -7 3 -2 3 12 0 22 -4 26 -1 28 20 1 15 -3 26 -9 26 -5
0 -7 5 -4 10 21 34 25 -17 25 -340z m6480 330 c0 -5 -4 -10 -10 -10 -5 0 -10
5 -10 10 0 6 5 10 10 10 6 0 10 -4 10 -10z m2047 -12 c-3 -8 -6 -5 -6 6 -1 11
2 17 5 13 3 -3 4 -12 1 -19z m-8557 -8 c0 -5 -5 -10 -11 -10 -5 0 -7 5 -4 10
3 6 8 10 11 10 2 0 4 -4 4 -10z m-5303 -22 c-3 -8 -6 -5 -6 6 -1 11 2 17 5 13
3 -3 4 -12 1 -19z m11813 -78 c0 -74 -10 -101 -24 -65 -3 8 -1 15 4 15 6 0 10
7 10 15 0 8 -5 15 -11 15 -7 0 -8 5 -3 13 5 6 9 29 9 50 -1 20 3 37 7 37 4 0
8 -36 8 -80z m2047 48 c-3 -7 -5 -2 -5 12 0 14 2 19 5 13 2 -7 2 -19 0 -25z
m-6640 -20 c-3 -8 -6 -5 -6 6 -1 11 2 17 5 13 3 -3 4 -12 1 -19z m4510 -25
c-3 -10 -5 -2 -5 17 0 19 2 27 5 18 2 -10 2 -26 0 -35z m-11657 1 c0 -8 -5
-12 -10 -9 -6 4 -8 11 -5 16 9 14 15 11 15 -7z m480 -109 l0 -125 -45 0 -45 0
0 118 c0 65 3 122 7 125 3 4 24 7 45 7 l38 0 0 -125z m13307 103 c-3 -8 -6 -5
-6 6 -1 11 2 17 5 13 3 -3 4 -12 1 -19z m-6617 -13 c0 -6 10 -17 23 -22 l22
-11 -25 -10 c-24 -10 -24 -11 10 -12 28 -1 31 -3 15 -9 l-20 -8 20 -6 c11 -3
-1 -5 -28 -4 l-47 2 1 52 c2 38 5 50 16 46 7 -3 13 -11 13 -18z m-7170 -25 c0
-5 -4 -10 -10 -10 -5 0 -10 5 -10 10 0 6 5 10 10 10 6 0 10 -4 10 -10z m-73
-22 c-3 -8 -6 -5 -6 6 -1 11 2 17 5 13 3 -3 4 -12 1 -19z m11730 -20 c-3 -8
-6 -5 -6 6 -1 11 2 17 5 13 3 -3 4 -12 1 -19z m-11657 -24 c0 -13 -4 -24 -8
-24 -4 0 -8 13 -7 29 0 16 3 27 7 24 5 -2 8 -15 8 -29z m13787 -6 c-3 -8 -6
-5 -6 6 -1 11 2 17 5 13 3 -3 4 -12 1 -19z m-13860 -90 c-3 -8 -6 -5 -6 6 -1
11 2 17 5 13 3 -3 4 -12 1 -19z m553 -173 c0 -52 -3 -94 -7 -94 -20 3 -27 -2
-14 -10 21 -13 -12 -43 -41 -39 -22 3 -23 8 -26 107 -1 58 0 111 2 118 3 8 22
13 46 13 l40 0 0 -95z m6733 58 c-13 -2 -33 -2 -45 0 -13 2 -3 4 22 4 25 0 35
-2 23 -4z m5349 -50 c0 -10 1 -24 1 -30 -1 -7 3 -10 8 -7 5 3 6 16 3 30 -4 14
-2 24 5 24 6 0 12 -8 13 -17 0 -10 2 -25 3 -33 1 -8 -4 -21 -9 -29 -8 -11 -8
-13 2 -7 9 6 12 -41 12 -221 0 -125 -4 -233 -8 -239 -4 -6 -24 -11 -44 -11
l-38 -1 0 279 0 279 25 0 c17 0 26 -6 27 -17z m398 5 c0 9 10 12 28 10 26 -3
27 -6 29 -63 1 -40 -1 -55 -7 -45 -6 9 -10 10 -10 3 0 -6 4 -14 9 -18 5 -3 10
-99 11 -218 l1 -212 -41 -1 -40 -1 0 46 c0 25 -1 129 -2 231 -1 253 0 288 12
270 7 -11 10 -11 10 -2z m432 -258 c2 -211 0 -270 -9 -270 -10 0 -13 61 -13
270 0 168 4 270 10 270 6 0 10 -104 12 -270z m395 248 c-3 -8 -6 -5 -6 6 -1
11 2 17 5 13 3 -3 4 -12 1 -19z m-15087 -29 c0 -13 -4 -18 -12 -13 -10 6 -10
4 0 -7 9 -10 12 -77 12 -263 l0 -251 -35 -2 -35 -2 0 280 0 279 35 0 c29 0 35
-4 35 -21z m420 -259 c0 -267 -1 -280 -18 -280 -25 0 -32 55 -32 265 0 222 8
295 31 295 17 0 18 -17 19 -280z m8087 264 c-3 -3 -12 -4 -19 -1 -8 3 -5 6 6
6 11 1 17 -2 13 -5z m4963 -154 l0 -140 -30 0 -30 0 0 140 0 140 30 0 30 0 0
-140z m-7330 -12 l0 -133 -45 -2 -45 -2 0 100 c0 58 4 98 9 95 14 -9 42 5 34
17 -4 7 0 8 11 4 14 -5 17 -3 12 8 -3 8 -1 15 4 15 6 0 10 7 10 15 0 8 2 15 5
15 3 0 5 -60 5 -132z m2373 125 c-13 -2 -33 -2 -45 0 -13 2 -3 4 22 4 25 0 35
-2 23 -4z m0 -80 c-13 -2 -33 -2 -45 0 -13 2 -3 4 22 4 25 0 35 -2 23 -4z
m-1007 -18 c-6 -16 14 -16 26 0 4 6 8 2 8 -7 0 -15 -8 -18 -42 -17 -24 1 -35
3 -25 6 9 2 17 11 17 19 0 8 5 14 11 14 6 0 9 -7 5 -15z m141 9 c-3 -3 -12 -4
-19 -1 -8 3 -5 6 6 6 11 1 17 -2 13 -5z m7100 -23 c-1 -15 -4 -17 -14 -9 -15
12 -17 22 -3 13 6 -3 10 -1 10 4 0 6 2 11 4 11 3 0 4 -9 3 -19z m-7097 -1 c0
-5 -8 -10 -17 -10 -15 0 -16 2 -3 10 19 12 20 12 20 0z m7499 -43 c-2 -3 -15
10 -28 27 l-24 31 28 -27 c16 -15 27 -29 24 -31z m-7282 37 c-3 -3 -12 -4 -19
-1 -8 3 -5 6 6 6 11 1 17 -2 13 -5z m6868 -44 l20 -25 -22 19 c-13 11 -23 24
-23 29 0 6 1 8 3 6 1 -2 11 -15 22 -29z m368 -15 c-3 -9 -8 -14 -10 -11 -3 3
-2 9 2 15 9 16 15 13 8 -4z m44 -17 c-3 -8 -6 -5 -6 6 -1 11 2 17 5 13 3 -3 4
-12 1 -19z m-6750 -4 c-3 -3 -12 -4 -19 -1 -8 3 -5 6 6 6 11 1 17 -2 13 -5z
m86 -1 c-7 -2 -19 -2 -25 0 -7 3 -2 5 12 5 14 0 19 -2 13 -5z m6632 -12 c-3
-5 -1 -12 5 -16 5 -3 10 -11 10 -18 0 -6 -6 -2 -14 8 -13 18 -13 35 0 35 3 0
3 -4 -1 -9z m-6632 -28 c-7 -2 -19 -2 -25 0 -7 3 -2 5 12 5 14 0 19 -2 13 -5z
m6665 -37 c-1 -14 -5 -23 -9 -20 -7 4 0 44 7 44 2 0 3 -11 2 -24z m-6751 -2
c-3 -3 -12 -4 -19 -1 -8 3 -5 6 6 6 11 1 17 -2 13 -5z m86 -1 c-7 -2 -19 -2
-25 0 -7 3 -2 5 12 5 14 0 19 -2 13 -5z m-1993 -178 c0 -97 -4 -155 -10 -155
-6 0 -10 58 -10 155 0 97 4 155 10 155 6 0 10 -58 10 -155z m1907 139 c-3 -3
-12 -4 -19 -1 -8 3 -5 6 6 6 11 1 17 -2 13 -5z m86 -1 c-7 -2 -19 -2 -25 0 -7
3 -2 5 12 5 14 0 19 -2 13 -5z m6665 -28 c-3 -3 -9 2 -12 12 -6 14 -5 15 5 6
7 -7 10 -15 7 -18z m-6748 -57 c0 -51 -2 -58 -20 -58 -18 0 -20 7 -20 59 0 54
2 60 20 58 18 -1 20 -8 20 -59z m130 0 l0 -58 -45 0 -45 0 0 60 0 61 45 -3 45
-3 0 -57z m430 0 l0 -58 -45 0 -45 0 0 60 0 61 45 -2 45 -3 0 -58z m4508 -15
c3 -38 1 -42 -14 -36 -11 4 -13 8 -6 11 19 6 14 22 -8 22 -13 0 -18 5 -14 15
4 8 1 15 -5 15 -6 0 -11 5 -11 11 0 6 12 9 27 7 24 -3 28 -8 31 -45z m1661
-17 c-3 -3 -11 5 -18 17 -13 21 -12 21 5 5 10 -10 16 -20 13 -22z m18 -88 c-2
-18 -4 -6 -4 27 0 33 2 48 4 33 2 -15 2 -42 0 -60z m-7612 -7 c90 -41 127
-120 123 -265 l-3 -99 -33 -1 -32 -1 0 100 c0 78 -4 108 -19 135 -57 109 -211
107 -261 -3 -15 -31 -20 -65 -20 -133 0 -50 -2 -93 -5 -96 -3 -2 -18 -3 -35 0
l-30 4 0 97 c1 104 13 152 53 205 55 71 174 97 262 57z m-1815 -46 c0 -32 -2
-35 -31 -35 -34 0 -31 19 4 21 20 1 20 2 -3 8 l-25 7 23 8 c12 4 22 12 22 17
0 5 2 9 5 9 3 0 5 -16 5 -35z m420 -2 c0 -32 -1 -33 -45 -33 -44 0 -45 1 -45
33 0 31 1 32 45 32 44 0 45 -1 45 -32z m9001 10 c13 -16 12 -17 -3 -4 -17 13
-22 21 -14 21 2 0 10 -8 17 -17z m-1283 -20 c-10 -2 -26 -2 -35 0 -10 3 -2 5
17 5 19 0 27 -2 18 -5z m1266 -33 c2 -19 7 -44 11 -55 6 -19 6 -19 -5 -2 -12
18 -26 107 -16 96 3 -3 7 -21 10 -39z m23 8 c-3 -8 -6 -5 -6 6 -1 11 2 17 5
13 3 -3 4 -12 1 -19z m-15160 -4 c-3 -3 -12 -4 -19 -1 -8 3 -5 6 6 6 11 1 17
-2 13 -5z m430 0 c-3 -3 -12 -4 -19 -1 -8 3 -5 6 6 6 11 1 17 -2 13 -5z m8498
-9 c11 -1 25 2 31 6 7 6 11 -56 13 -199 l2 -207 -45 -1 -46 0 0 163 0 163 40
-3 c26 -2 39 1 36 7 -2 6 -9 10 -15 9 -6 -2 -10 1 -8 6 1 5 -2 8 -8 8 -5 -1
-9 -5 -8 -9 1 -3 -5 -5 -14 -4 -12 2 -18 13 -18 39 -1 23 2 34 9 29 6 -4 20
-7 31 -7z m-519 -31 c0 -23 -4 -30 -12 -24 -6 6 -15 6 -20 2 -5 -4 -1 2 8 14
12 14 14 24 8 30 -7 7 -6 11 3 11 8 0 13 -13 13 -33z m114 26 c3 -1 7 -2 10
-2 3 0 6 -15 6 -33 0 -21 -4 -31 -11 -27 -5 4 -23 7 -40 7 -25 0 -30 4 -31 25
0 14 1 28 2 31 3 5 51 4 64 -1z m5330 6 c0 -2 -8 -10 -17 -17 -16 -13 -17 -12
-4 4 13 16 21 21 21 13z m837 -18 c-3 -8 -6 -5 -6 6 -1 11 2 17 5 13 3 -3 4
-12 1 -19z m68 12 c3 -5 1 -10 -4 -10 -6 0 -11 5 -11 10 0 6 2 10 4 10 3 0 8
-4 11 -10z m-8605 -187 l0 -166 -45 59 -44 59 -1 108 0 107 45 0 45 0 0 -167z
m8610 130 c0 -43 -8 -40 -14 5 -2 18 1 32 5 32 5 0 9 -16 9 -37z m-14794 1 c0
-13 -5 -20 -12 -17 -15 6 -14 40 1 40 6 0 11 -10 11 -23z m14739 -13 c-3 -6
-11 -11 -16 -11 -5 0 -4 6 3 14 14 16 24 13 13 -3z m27 -9 c-7 -2 -12 -11 -12
-19 0 -9 -3 -14 -6 -10 -10 10 7 48 19 40 8 -5 8 -8 -1 -11z m-6192 -158 c0
-85 -3 -154 -7 -155 -5 -1 -24 -2 -43 -3 l-35 -1 -3 157 -3 157 33 3 c59 6 58
9 58 -158z m5717 144 c-3 -8 -6 -5 -6 6 -1 11 2 17 5 13 3 -3 4 -12 1 -19z
m-14302 -11 c0 -7 12 -11 28 -9 l28 4 -2 -215 -2 -214 -23 0 c-17 0 -21 4 -19
19 2 10 0 16 -5 13 -5 -3 -12 -1 -15 5 -4 6 -1 9 5 8 17 -4 14 214 -3 224 -9
6 -9 8 1 8 6 0 12 11 12 25 0 14 -6 25 -12 25 -9 0 -8 4 2 10 13 9 13 10 0 10
-11 0 -12 2 -2 8 15 10 25 52 12 52 -5 0 -10 -10 -13 -22 -2 -13 -4 -1 -4 25
0 26 2 45 6 42 3 -4 6 -12 6 -18z m8455 -136 c0 -154 -1 -160 -20 -158 -19 1
-20 8 -20 159 0 151 1 158 20 158 19 0 20 -7 20 -159z m6747 127 c-3 -8 -6 -5
-6 6 -1 11 2 17 5 13 3 -3 4 -12 1 -19z m-389 -81 c1 -48 0 -87 -3 -87 -20 0
-54 35 -59 61 -3 17 -9 28 -13 26 -5 -3 -9 8 -10 24 -1 15 3 31 8 35 8 4 7 10
-2 16 -10 7 -9 8 6 4 11 -3 27 -1 35 4 28 18 35 3 38 -83z m391 39 c-3 -3 -11
5 -18 17 -13 21 -12 21 5 5 10 -10 16 -20 13 -22z m-28 -139 c-10 -9 -11 -8
-5 6 3 10 9 15 12 12 3 -3 0 -11 -7 -18z m-7413 -13 c22 -15 22 -18 22 -259
l0 -244 -26 -20 c-25 -20 -39 -21 -264 -21 -225 0 -239 1 -264 21 l-26 20 0
240 c0 226 1 240 20 259 19 19 33 20 268 20 208 0 251 -2 270 -16z m-7771 -76
c-2 -13 -4 -3 -4 22 0 25 2 35 4 23 2 -13 2 -33 0 -45z m15186 12 c3 -11 1
-18 -4 -14 -5 3 -9 12 -9 20 0 20 7 17 13 -6z m23 -60 c0 -12 -4 -16 -9 -11
-5 5 -6 14 -3 20 10 15 12 14 12 -9z m-15209 -42 c-3 -7 -5 -2 -5 12 0 14 2
19 5 13 2 -7 2 -19 0 -25z m15192 18 c9 -11 9 -16 -1 -22 -7 -4 -10 -4 -6 1 4
4 3 14 -3 22 -6 7 -9 13 -6 13 2 0 10 -6 16 -14z m-9060 -52 c-5 -7 -7 -23 -4
-37 4 -14 3 -27 -2 -30 -4 -3 -9 14 -10 37 -2 32 1 43 12 43 11 0 12 -4 4 -13z
m9078 -16 c-3 -8 -6 -5 -6 6 -1 11 2 17 5 13 3 -3 4 -12 1 -19z m-9429 -23
c-3 -3 -9 2 -12 12 -6 14 -5 15 5 6 7 -7 10 -15 7 -18z m2649 3 c-3 -8 -6 -5
-6 6 -1 11 2 17 5 13 3 -3 4 -12 1 -19z m-2724 -8 c3 -11 1 -18 -4 -14 -5 3
-9 12 -9 20 0 20 7 17 13 -6z m-5706 -12 c-3 -8 -6 -5 -6 6 -1 11 2 17 5 13 3
-3 4 -12 1 -19z m8446 -51 c9 5 8 2 0 -9 -7 -8 -10 -17 -7 -20 3 -3 2 -8 -3
-11 -4 -3 -9 18 -9 46 -1 29 1 37 3 19 3 -22 8 -30 16 -25z m-2246 21 c-3 -8
-6 -5 -6 6 -1 11 2 17 5 13 3 -3 4 -12 1 -19z m348 13 c3 -5 2 -12 -3 -15 -5
-3 -9 1 -9 9 0 17 3 19 12 6z m-842 -21 c3 -11 1 -20 -4 -20 -5 0 -9 9 -9 20
0 11 2 20 4 20 2 0 6 -9 9 -20z m420 -20 c-7 -27 -13 -25 -11 4 1 14 5 23 9
20 4 -2 5 -13 2 -24z m-6103 5 c0 -2 -7 -5 -15 -9 -9 -3 -15 0 -15 9 0 9 6 12
15 9 8 -4 15 -7 15 -9z m5757 -17 c-3 -8 -6 -5 -6 6 -1 11 2 17 5 13 3 -3 4
-12 1 -19z m765 -3 c3 -14 1 -25 -3 -25 -5 0 -9 11 -9 25 0 14 2 25 4 25 2 0
6 -11 8 -25z m-845 -17 c-3 -8 -6 -5 -6 6 -1 11 2 17 5 13 3 -3 4 -12 1 -19z
m-5700 -10 c-3 -8 -6 -5 -6 6 -1 11 2 17 5 13 3 -3 4 -12 1 -19z m5360 -10
c-3 -7 -5 -2 -5 12 0 14 2 19 5 13 2 -7 2 -19 0 -25z m9826 17 c-3 -9 -8 -14
-10 -11 -3 3 -2 9 2 15 9 16 15 13 8 -4z m-15125 -117 l3 -117 -36 36 c-30 30
-35 41 -33 77 l1 41 4 -43 c3 -27 8 -40 15 -36 6 4 8 3 4 -4 -3 -6 -3 -13 2
-16 7 -4 9 84 2 92 -13 13 5 56 19 47 4 -2 8 2 8 10 0 11 -4 12 -14 4 -7 -6
-13 -10 -14 -8 -6 33 -5 36 15 35 20 -1 21 -6 24 -118z m15149 100 c-3 -8 -6
-5 -6 6 -1 11 2 17 5 13 3 -3 4 -12 1 -19z m-9084 -3 c4 -8 3 -16 -1 -19 -4
-3 -9 4 -9 15 -2 23 3 25 10 4z m2304 -17 c-3 -8 -6 -5 -6 6 -1 11 2 17 5 13
3 -3 4 -12 1 -19z m-8430 -10 c-3 -8 -6 -5 -6 6 -1 11 2 17 5 13 3 -3 4 -12 1
-19z m6546 7 c-3 -9 -8 -14 -10 -11 -3 3 -2 9 2 15 9 16 15 13 8 -4z m8664
-17 c-3 -8 -6 -5 -6 6 -1 11 2 17 5 13 3 -3 4 -12 1 -19z m-9510 -20 c-3 -8
-6 -5 -6 6 -1 11 2 17 5 13 3 -3 4 -12 1 -19z m9511 -69 c-3 -8 -7 -3 -11 10
-4 17 -3 21 5 13 5 -5 8 -16 6 -23z m-20 -24 c-3 -3 -9 2 -12 12 -6 14 -5 15
5 6 7 -7 10 -15 7 -18z m22 -337 c0 -166 -2 -300 -5 -297 -2 3 -5 33 -6 67 -2
67 -11 85 -29 52 -6 -11 -15 -20 -21 -20 -6 0 -4 7 4 15 9 9 14 28 12 47 -2
18 -1 24 2 13 l6 -20 9 20 c8 18 8 18 4 -2 -2 -13 0 -25 4 -28 5 -3 8 23 7 59
-1 35 -4 62 -7 59 -3 -2 -6 -9 -6 -14 -3 -19 -4 -20 -15 -14 -6 5 -4 16 7 33
13 21 14 24 2 15 -8 -7 -17 -11 -19 -8 -3 2 -5 -15 -4 -38 0 -23 -2 -60 -6
-82 -3 -22 -7 65 -8 193 l-1 234 30 -7 c17 -4 30 -3 29 2 -2 12 0 23 5 23 3 0
5 -136 6 -302z m-400 57 c-1 -123 -5 -203 -11 -200 -5 4 -9 1 -9 -6 0 -7 -3
-9 -6 -6 -4 4 -2 12 4 20 6 7 10 34 9 60 -1 25 -4 42 -8 36 -4 -8 -9 -8 -13
-1 -3 6 -2 13 4 17 5 3 10 12 10 18 -1 17 -24 -24 -27 -48 -2 -15 -1 -16 6 -6
5 8 11 9 15 3 3 -5 -1 -13 -10 -16 -8 -3 -12 -11 -8 -17 4 -8 9 -7 15 2 6 10
8 7 6 -9 -4 -29 -22 -48 -32 -33 -3 6 -3 10 2 9 4 -2 8 2 8 7 0 6 -2 9 -5 8
-13 -4 -8 81 6 102 14 21 14 23 0 21 -9 -1 -19 -6 -23 -11 -4 -4 -2 -5 5 -1
14 9 17 -10 2 -19 -6 -4 -9 -22 -8 -40 1 -19 -1 -37 -5 -41 -4 -4 -7 63 -7
149 l0 157 38 24 c20 14 38 25 40 25 1 1 2 -91 2 -204z m-14328 128 c22 -20
13 -49 -10 -31 -13 12 -14 11 -2 -9 8 -12 17 -20 20 -18 4 2 7 -2 7 -10 0 -21
-24 -19 -31 3 -4 13 -4 13 -3 -3 1 -11 -3 -27 -8 -35 -8 -13 -6 -13 8 -2 9 8
22 12 29 9 8 -4 7 -6 -4 -6 -9 -1 -24 -10 -32 -22 -13 -19 -14 -14 -15 65 -1
90 1 93 41 59z m5718 -269 l0 -146 -33 3 c-18 2 -38 0 -45 -5 -9 -5 -12 26
-12 142 l0 149 45 1 45 1 0 -145z m350 76 l0 -70 35 0 35 0 0 -75 0 -75 -45 0
-45 0 0 145 c0 90 4 145 10 145 6 0 10 -30 10 -70z m-823 -22 c-2 -18 -4 -6
-4 27 0 33 2 48 4 33 2 -15 2 -42 0 -60z m-370 41 c2 -16 -1 -19 -9 -11 -5 5
-7 15 -4 21 10 15 12 14 13 -10z m3 -46 c0 -7 -4 -13 -10 -13 -5 0 -10 5 -10
12 0 6 -8 20 -17 32 -18 20 -18 20 9 0 15 -10 28 -25 28 -31z m-43 -5 c-3 -8
-6 -5 -6 6 -1 11 2 17 5 13 3 -3 4 -12 1 -19z m-40 -80 c-2 -18 -4 -4 -4 32 0
36 2 50 4 33 2 -18 2 -48 0 -65z m2460 77 c0 -12 -17 -15 -89 -15 -49 0 -87 4
-84 8 3 5 -1 9 -9 9 -8 0 -12 -4 -9 -9 3 -4 0 -8 -5 -8 -6 0 -11 7 -11 15 0
12 18 15 103 15 86 0 104 -3 104 -15z m-1960 -42 c-3 -10 -5 -4 -5 12 0 17 2
24 5 18 2 -7 2 -21 0 -30z m-50 -5 c-3 -8 -6 -5 -6 6 -1 11 2 17 5 13 3 -3 4
-12 1 -19z m9459 5 c-3 -19 -19 -21 -21 -2 -2 9 3 16 10 16 7 0 12 -6 11 -14z
m-8176 -73 l0 -80 -27 11 c-14 5 -32 8 -40 5 -10 -4 -13 11 -13 69 l0 75 40 0
40 0 0 -80z m-2153 18 c-3 -7 -5 -2 -5 12 0 14 2 19 5 13 2 -7 2 -19 0 -25z
m77 6 c3 -8 2 -12 -4 -9 -6 3 -10 10 -10 16 0 14 7 11 14 -7z m4516 -86 c0 -4
-20 -7 -45 -6 -25 0 -45 5 -45 10 0 4 20 7 45 6 25 0 45 -5 45 -10z m-3283
-259 c-16 -4 -35 -13 -43 -20 -11 -9 -14 -7 -14 13 0 22 3 23 43 19 40 -4 40
-4 14 -12z m2423 -60 c0 -58 -1 -60 -22 -53 -67 20 -68 21 -68 69 l0 45 45 0
45 0 0 -61z m-2810 -22 l0 -62 -45 -16 -45 -17 0 64 0 63 35 7 c19 3 38 10 41
15 11 18 14 7 14 -54z m3195 -61 c49 -17 58 -36 17 -36 -17 0 -37 -3 -46 -6
-13 -5 -16 1 -16 25 0 17 1 31 3 31 1 0 20 -7 42 -14z m-3615 -90 c0 -61 -1
-65 -27 -74 -16 -5 -36 -13 -45 -17 -16 -6 -18 0 -18 59 0 56 3 66 18 66 9 1
28 7 42 15 14 8 26 14 28 15 1 0 2 -29 2 -64z m3660 -16 l0 -41 -30 16 c-16 8
-36 15 -45 15 -8 0 -15 9 -15 19 0 15 8 21 38 24 20 2 40 4 45 5 4 1 7 -16 7
-38z m430 -128 c0 -56 -2 -63 -17 -58 -10 3 -30 8 -45 12 -27 6 -28 8 -28 74
l0 68 45 -17 45 -16 0 -63z m-4510 -14 c0 -68 -1 -70 -18 -55 -10 10 -31 17
-45 17 -25 0 -27 3 -27 40 0 37 2 39 35 46 19 3 38 10 41 15 11 19 14 7 14
-63z m-55 -80 c3 -3 -3 -8 -15 -11 -13 -3 -20 0 -20 8 0 13 23 15 35 3z m4989
6 c17 -7 22 -44 6 -44 -5 0 -7 7 -4 15 4 8 2 15 -4 15 -6 0 -13 -6 -15 -12 -3
-7 -6 -3 -6 10 -1 24 0 25 23 16z m-5360 -38 c-3 -9 -10 -13 -16 -10 -5 3 -4
12 3 20 15 18 22 13 13 -10z m5421 14 c3 -5 -1 -10 -9 -10 -9 0 -16 5 -16 10
0 6 4 10 9 10 6 0 13 -4 16 -10z m-9905 -1795 c0 -2 -9 -9 -20 -15 -12 -6 -20
-7 -20 -1 0 5 8 12 18 14 9 3 18 5 20 6 1 0 2 -1 2 -4z m14750 -29 c0 -3 -4
-8 -10 -11 -5 -3 -10 -1 -10 4 0 6 5 11 10 11 6 0 10 -2 10 -4z m27 -132 c-1
-2 -20 4 -40 14 -35 15 -38 19 -36 58 3 41 3 42 36 39 20 -2 34 1 35 8 1 7 3
-17 5 -52 2 -35 2 -65 0 -67z m372 95 c28 -10 31 -15 31 -54 0 -41 -1 -43 -35
-47 l-35 -4 0 58 c0 32 2 58 4 58 1 0 17 -5 35 -11z m-8169 -175 c0 -137 -3
-174 -12 -168 -10 6 -10 5 -1 -7 10 -12 13 -82 13 -267 l-1 -252 -24 0 c-17 0
-25 6 -26 18 -1 16 -2 16 -6 0 -2 -10 -9 -18 -14 -18 -5 0 -9 116 -9 283 0
262 1 285 18 300 12 11 18 28 16 49 -1 18 -3 43 -3 56 -1 12 -6 22 -11 22 -7
0 -9 -21 -7 -55 2 -31 0 -58 -4 -61 -5 -3 -9 49 -8 116 0 66 3 120 8 120 4 0
5 -16 3 -35 -3 -22 0 -35 7 -35 9 0 9 -5 1 -20 -7 -13 -7 -20 -1 -20 6 0 15 9
21 20 7 14 7 20 0 20 -12 0 -13 50 -1 69 7 11 11 10 20 -5 9 -17 10 -15 11 14
0 17 2 32 5 32 3 0 5 -79 5 -176z m8200 -29 l0 -45 -32 13 c-53 22 -52 77 2
77 29 0 30 -2 30 -45z m-14691 -1287 l0 -333 -35 -29 c-19 -16 -37 -26 -40
-23 -3 3 -7 165 -9 361 l-3 356 44 0 44 0 -1 -332z m421 172 l0 -156 -27 -25
c-66 -59 -61 -70 -61 138 0 103 2 192 5 196 3 4 22 7 44 5 l39 -2 0 -156z
m2280 -42 l0 -190 -36 -50 c-20 -27 -39 -46 -43 -43 -9 9 -8 469 1 476 4 3 24
3 43 1 l35 -4 0 -190z m-1917 170 c-24 -23 -40 -20 -30 7 4 8 17 15 29 15 l22
0 -21 -22z m10507 -342 l0 -350 -45 62 -45 62 0 283 c0 156 3 287 7 290 3 4
23 6 45 5 l38 -1 0 -351z m2150 117 l0 -237 -45 44 -45 44 0 186 c0 103 2 189
4 191 2 2 23 5 45 6 l41 3 0 -237z m-4941 185 l-1 -43 -13 35 c-18 46 -18 50
0 50 11 0 15 -11 14 -42z m2331 0 l-1 -43 -29 35 c-37 44 -37 50 0 50 29 0 30
-2 30 -42z m2180 17 c0 -26 0 -26 -25 -8 -31 23 -31 33 0 33 20 0 25 -5 25
-25z"/>
<path d="M6220 9720 c0 -5 5 -10 10 -10 6 0 10 5 10 10 0 6 -4 10 -10 10 -5 0
-10 -4 -10 -10z"/>
<path d="M1021 9704 c0 -11 3 -14 6 -6 3 7 2 16 -1 19 -3 4 -6 -2 -5 -13z"/>
<path d="M10406 9737 c3 -10 9 -15 12 -12 3 3 0 11 -7 18 -10 9 -11 8 -5 -6z"/>
<path d="M15267 9743 c-4 -3 -7 -11 -7 -17 0 -6 5 -5 12 2 6 6 9 14 7 17 -3 3
-9 2 -12 -2z"/>
<path d="M13126 9715 c-11 -8 -15 -15 -9 -15 6 0 16 7 23 15 16 19 11 19 -14
0z"/>
<path d="M13540 9710 c0 -5 5 -10 11 -10 5 0 7 5 4 10 -3 6 -8 10 -11 10 -2 0
-4 -4 -4 -10z"/>
<path d="M10390 9700 c0 -5 5 -10 11 -10 5 0 7 5 4 10 -3 6 -8 10 -11 10 -2 0
-4 -4 -4 -10z"/>
<path d="M15687 9646 c-4 -10 -1 -13 8 -9 8 3 12 9 9 14 -7 12 -11 11 -17 -5z"/>
<path d="M5240 7976 c-28 -31 -62 -73 -190 -241 -52 -67 -235 -304 -261 -335
-11 -14 -30 -38 -42 -54 -12 -16 -65 -83 -117 -150 -53 -67 -125 -159 -161
-206 -36 -47 -276 -355 -532 -685 -257 -330 -610 -784 -785 -1008 -174 -225
-369 -475 -432 -556 -63 -81 -180 -232 -260 -335 -136 -176 -335 -432 -363
-466 -48 -59 -167 -217 -167 -223 0 -4 148 -7 329 -7 l330 0 172 222 c95 123
337 435 538 693 201 259 444 571 541 695 97 124 208 266 246 316 38 49 137
177 219 283 83 106 266 342 408 524 141 183 317 408 390 501 72 93 163 210
201 260 38 50 124 161 191 246 291 372 404 520 410 539 6 20 3 21 -75 21 -56
0 -82 -4 -86 -13 -5 -14 -84 -11 -84 3 0 4 -87 8 -194 9 l-195 2 -31 -35z
m160 -103 c11 -17 11 -17 6 0 -3 9 -1 17 4 17 6 0 10 -10 10 -22 1 -21 2 -21
11 -5 23 39 29 12 29 -135 0 -89 -4 -147 -9 -139 -11 18 -23 -2 -14 -25 4 -11
3 -15 -4 -11 -15 9 -50 -25 -45 -45 2 -10 -1 -25 -7 -35 -7 -13 -10 44 -11
200 0 211 4 240 30 200z m-360 -594 c0 -228 0 -231 -20 -226 -11 3 -20 1 -20
-4 0 -5 9 -9 20 -9 28 0 25 -18 -5 -26 -14 -3 -25 -10 -25 -15 0 -5 -7 -9 -16
-9 -11 0 -15 -6 -11 -19 2 -10 1 -25 -4 -32 -5 -8 -9 98 -9 249 0 173 3 261
10 257 6 -3 10 -14 10 -23 1 -16 1 -15 11 1 5 9 7 22 3 29 -5 8 -2 9 10 5 13
-5 20 1 28 23 5 17 11 30 13 30 2 0 4 -104 5 -231z m-422 -774 c-1 -21 -7 -35
-15 -35 -7 0 -13 -5 -13 -12 0 -28 -14 6 -17 42 -4 37 -2 40 22 40 23 0 25 -3
23 -35z m-421 -232 c-2 -16 -4 -5 -4 22 0 28 2 40 4 28 2 -13 2 -35 0 -50z
m-30 -68 c0 -8 -4 -12 -9 -9 -5 3 -6 10 -3 15 9 13 12 11 12 -6z m7 -85 c3
-14 -3 -7 -13 15 -11 22 -20 45 -20 50 0 15 26 -37 33 -65z m-434 -570 c0 -58
-2 -68 -15 -63 -9 3 -15 2 -14 -3 1 -5 1 -17 0 -27 -1 -16 -2 -16 -26 -1 -24
16 -26 22 -24 81 2 59 4 64 28 69 14 3 31 7 36 9 6 2 11 4 13 4 1 1 2 -30 2
-69z m0 -100 c0 -11 -2 -20 -4 -20 -2 0 -6 9 -9 20 -3 11 -1 20 4 20 5 0 9 -9
9 -20z"/>
<path d="M10217 7922 c37 -48 112 -144 165 -212 325 -417 501 -643 622 -800
59 -77 208 -268 281 -360 28 -36 146 -186 260 -335 115 -148 270 -349 345
-445 75 -96 154 -198 176 -226 47 -61 1222 -1572 1342 -1726 l84 -108 335 0
335 0 -30 38 c-16 20 -431 555 -923 1187 -491 633 -1123 1445 -1403 1805 -280
360 -523 673 -540 695 -17 22 -125 160 -239 308 l-208 267 -335 0 -335 0 68
-88z m665 -191 c-10 -6 -9 -11 4 -22 12 -9 15 -10 10 -1 -4 6 -5 12 -1 12 6 0
25 -44 31 -74 2 -10 6 -21 10 -25 4 -3 5 1 2 10 -4 9 -2 22 3 30 5 8 9 -85 9
-234 0 -166 -3 -246 -10 -242 -6 4 -8 11 -5 16 4 5 -1 9 -9 9 -10 0 -13 6 -9
16 4 11 1 15 -13 12 -15 -2 -19 3 -18 25 1 17 -4 27 -12 27 -11 0 -14 42 -14
225 0 208 1 225 18 225 13 0 14 -2 4 -9z m431 -557 c-3 -8 2 -17 12 -20 13 -5
14 -9 4 -15 -10 -6 -5 -11 14 -18 16 -6 26 -15 22 -20 -3 -5 -1 -12 5 -16 10
-6 15 -145 5 -145 -3 0 -24 9 -45 20 l-40 20 0 116 c0 100 2 115 14 104 8 -6
12 -18 9 -26z m497 -622 c0 -5 -7 -15 -15 -22 -13 -11 -15 -7 -15 24 0 33 2
36 15 22 8 -8 15 -19 15 -24z m59 -514 c0 -35 -3 -58 -5 -51 -3 7 -12 9 -21 6
-11 -4 -14 -2 -11 8 3 8 -9 24 -26 38 -29 22 -30 23 -6 17 l25 -7 -22 17 c-34
25 -28 34 22 34 l45 0 -1 -62z m396 -48 c-3 -5 -11 -10 -16 -10 -6 0 -7 5 -4
10 3 6 11 10 16 10 6 0 7 -4 4 -10z m15 -30 c-12 -7 -12 -10 -1 -10 7 0 11 -6
8 -14 -4 -11 -1 -13 10 -9 11 4 14 2 9 -5 -4 -8 0 -12 11 -12 15 0 16 -2 3
-10 -8 -5 -29 -10 -47 -10 -31 0 -32 2 -31 40 0 36 3 40 27 40 20 0 23 -2 11
-10z m50 -265 l0 -105 -45 0 -45 0 0 105 0 105 45 0 45 0 0 -105z m0 -224 c0
-21 -30 -38 -31 -18 0 7 -5 3 -10 -8 -8 -17 -9 -16 -6 8 3 20 1 25 -8 17 -6
-5 -15 -7 -18 -3 -16 15 -4 23 33 23 33 0 40 -4 40 -19z"/>
<path d="M7471 7615 c0 -11 4 -27 9 -35 9 -13 10 -13 9 0 0 8 -4 24 -9 35 l-9
20 0 -20z"/>
<path d="M7466 6819 c-7 -23 -1 -66 12 -81 6 -8 10 -17 7 -20 -3 -3 1 -11 10
-18 13 -11 15 -9 15 12 0 14 -3 28 -7 32 -4 3 -8 21 -9 38 -3 35 -21 59 -28
37z"/>
<path d="M7505 6810 c3 -5 8 -10 11 -10 2 0 4 5 4 10 0 6 -5 10 -11 10 -5 0
-7 -4 -4 -10z"/>
<path d="M7470 6680 c13 -9 13 -10 0 -10 -12 -1 -12 -3 2 -14 10 -7 16 -15 14
-17 -3 -2 4 -15 15 -29 l20 -25 -7 30 c-4 17 -11 36 -17 43 -6 8 -5 12 4 12
11 0 11 2 -1 10 -8 5 -22 10 -30 10 -13 0 -13 -1 0 -10z"/>
<path d="M7505 6570 c-3 -5 -1 -10 4 -10 6 0 11 5 11 10 0 6 -2 10 -4 10 -3 0
-8 -4 -11 -10z"/>
<path d="M14001 7354 c0 -11 3 -14 6 -6 3 7 2 16 -1 19 -3 4 -6 -2 -5 -13z"/>
<path d="M14001 7244 c0 -11 3 -14 6 -6 3 7 2 16 -1 19 -3 4 -6 -2 -5 -13z"/>
<path d="M14841 7384 c0 -11 3 -14 6 -6 3 7 2 16 -1 19 -3 4 -6 -2 -5 -13z"/>
<path d="M14862 7310 c0 -14 2 -19 5 -12 2 6 2 18 0 25 -3 6 -5 1 -5 -13z"/>
<path d="M14834 7090 c0 -113 2 -159 3 -102 2 56 2 148 0 205 -1 56 -3 10 -3
-103z"/>
<path d="M14861 6974 c0 -11 3 -14 6 -6 3 7 2 16 -1 19 -3 4 -6 -2 -5 -13z"/>
<path d="M1012 7180 c0 -14 2 -19 5 -12 2 6 2 18 0 25 -3 6 -5 1 -5 -13z"/>
<path d="M1011 7044 c0 -11 3 -14 6 -6 3 7 2 16 -1 19 -3 4 -6 -2 -5 -13z"/>
<path d="M1012 6880 c0 -14 2 -19 5 -12 2 6 2 18 0 25 -3 6 -5 1 -5 -13z"/>
<path d="M14430 6210 c0 -5 5 -10 11 -10 5 0 7 5 4 10 -3 6 -8 10 -11 10 -2 0
-4 -4 -4 -10z"/>
<path d="M14834 6420 c0 -113 2 -159 3 -102 2 56 2 148 0 205 -1 56 -3 10 -3
-103z"/>
<path d="M521 6164 c0 -11 3 -14 6 -6 3 7 2 16 -1 19 -3 4 -6 -2 -5 -13z"/>
<path d="M6673 6529 c-2 -23 3 -25 10 -4 4 8 3 16 -1 19 -4 3 -9 -4 -9 -15z"/>
<path d="M9464 5963 c0 -17 3 -20 13 -11 7 5 10 15 6 22 -3 6 5 1 18 -11 l25
-23 0 23 c0 19 -5 23 -31 23 -25 0 -31 -4 -31 -23z"/>
<path d="M9034 5965 c0 -17 6 -21 32 -21 46 0 37 39 -9 41 -17 1 -23 -4 -23
-20z m52 3 c4 -7 4 -10 -1 -6 -4 4 -14 3 -21 -3 -8 -7 -14 -6 -20 2 -4 7 -3 9
4 5 6 -3 13 -2 17 4 8 13 12 13 21 -2z"/>
<path d="M550 5505 c0 -5 5 -17 10 -25 5 -8 10 -10 10 -5 0 6 -5 17 -10 25 -5
8 -10 11 -10 5z"/>
<path d="M7802 5613 c2 -10 10 -18 18 -18 22 0 18 29 -3 33 -14 3 -18 -1 -15
-15z"/>
<path d="M8205 5620 c-8 -14 3 -30 21 -30 8 0 14 9 14 20 0 21 -24 28 -35 10z"/>
<path d="M7992 5544 c-25 -17 -30 -65 -8 -83 11 -10 11 -21 0 -74 -21 -98 -21
-97 36 -97 57 0 58 2 39 90 -9 42 -8 57 5 85 19 39 11 66 -24 85 -24 13 -21
13 -48 -6z"/>
<path d="M7803 5244 c-7 -19 11 -39 26 -30 16 10 13 33 -4 40 -9 3 -18 -1 -22
-10z"/>
<path d="M8211 5247 c-9 -11 -8 -17 4 -27 12 -10 16 -9 21 5 9 23 -10 40 -25
22z"/>
<path d="M15701 4864 c0 -11 3 -14 6 -6 3 7 2 16 -1 19 -3 4 -6 -2 -5 -13z"/>
<path d="M15683 4835 c0 -8 4 -12 9 -9 5 3 6 10 3 15 -9 13 -12 11 -12 -6z"/>
<path d="M15273 4875 c0 -8 4 -12 9 -9 5 3 6 10 3 15 -9 13 -12 11 -12 -6z"/>
<path d="M6686 4809 c21 -23 23 -23 20 -2 -2 9 -11 17 -20 19 -17 2 -17 2 0
-17z"/>
<path d="M6646 4715 c-4 -11 1 -15 17 -15 17 0 19 2 8 9 -11 7 -7 10 15 14
l29 4 -31 2 c-20 0 -34 -5 -38 -14z"/>
<path d="M7462 4715 c1 -14 6 -25 11 -25 5 0 4 -7 -3 -15 -7 -9 -10 -18 -6
-22 3 -3 6 0 6 7 0 11 2 12 13 1 10 -10 8 -15 -7 -27 -14 -10 -16 -14 -5 -14
22 0 34 13 33 35 0 11 4 26 9 33 7 9 5 11 -7 6 -9 -4 -16 -3 -15 2 4 25 -3 44
-16 44 -10 0 -14 -9 -13 -25z"/>
<path d="M7506 4727 c3 -10 9 -15 12 -12 3 3 0 11 -7 18 -10 9 -11 8 -5 -6z"/>
<path d="M7479 1713 c-5 -23 -5 -312 -1 -308 3 3 6 60 7 128 2 67 5 137 8 155
3 17 2 32 -3 32 -6 0 -11 -3 -11 -7z"/>
<path d="M7484 1388 c-9 -14 -17 -74 -9 -66 4 3 7 17 9 30 1 13 6 29 10 36 4
7 5 12 2 12 -3 0 -8 -5 -12 -12z"/>
<path d="M7473 1268 c1 -26 5 -44 9 -40 3 4 2 25 -2 47 l-8 40 1 -47z"/>
<path d="M7496 1207 c3 -10 9 -15 12 -12 3 3 0 11 -7 18 -10 9 -11 8 -5 -6z"/>
<path d="M7470 1204 c0 -6 7 -19 16 -30 14 -18 14 -18 3 6 -14 31 -19 36 -19
24z"/>
</g>
</svg>
